# xmcd
#
# Track frame offsets:
#	150
#	21266
#	38514
#	57040
#	79470
#	96347
#	108495
#	133798
#	152813
#	174957
#	184164
#	201093
#	223079
#	241486
#	256164
#	272311
#	318341
#
# Disc length: 4554 seconds
#
# Revision: 0
# Processed by: cddbd v1.5.1PL2 Copyright (c) Steve Scherf et al.
# Submitted via: EasyCDDAExtractor 8.0.1.1
#
DISCID=e811c811
DTITLE=Various Artist - San Francisco Bay's Best Blues
DYEAR=2002
DGENRE=Blues
TTITLE0=Daniel Castro - Cold Hearted Woman
TTITLE1=Larry Dunn - Jumpin' At The Golden Gate
TTITLE2=Garth Webber - Choose My Own Way
TTITLE3=Mike Schermer - Annabelle
TTITLE4=Damien Masterson - Joe's Fried Chikcen
TTITLE5=Dave Matthews and Chris Cain - T-Bone Steak
TTITLE6=Sugar Pie De Santo - I Still Care
TTITLE7=Anthony Paul - Goin' Home
TTITLE8=LZ Phoenix - Been Lonely
TTITLE9=David Landon - Galveston
TTITLE10=Angela Strehli - Stand By Your Woman Man
TTITLE11=Michael Peloquin - Maceosity
TTITLE12=Rhythmtown Jive - Blues Hotel
TTITLE13=Kaye Bohler - Wrong Man Blues
TTITLE14=Mark Hummel - Blue Jimmy
TTITLE15=Blue Monday - Bare Footin'
TTITLE16=John Lee Sanders - Never Had It So Do Good
EXTD=
EXTT0=
EXTT1=
EXTT2=
EXTT3=
EXTT4=
EXTT5=
EXTT6=
EXTT7=
EXTT8=
EXTT9=
EXTT10=
EXTT11=
EXTT12=
EXTT13=
EXTT14=
EXTT15=
EXTT16=
PLAYORDER=
